#!OML:ASF F:\VICON\USERDATA\INSTALL\rory3\rory3.ASF
:FULLY-SPECIFIED
:DEGREES
1
root 0.055765999999999316 17.5942 -32.06220000000006 5.438589999999998 -6.202559999999993 -0.9711690000000033
lfemur -1.6526599999999974 0.024613699999999628 -23.642399999999995
ltibia 81.15419999999997
lfoot 33.63990000000002 -19.38510000000001
ltoes 2.090009999999989
rfemur -35.01250000000003 5.4830899999999945 28.488
rtibia 41.546599999999955
rfoot -8.268649999999983 -3.0553199999999965
rtoes 9.648039999999995
lowerback nan -0.913592999999996 -0.8103029999999984
upperback -0.5970650000000002 -1.1077799999999949 2.610769999999998
thorax -10.344700000000001 -0.39971100000000004 3.604369999999997
lowerneck -17.728200000000005 -1.9389000000000034 -2.8966699999999994
upperneck 10.0534 -2.20655 2.090369999999999
head 5.98288 -1.0150300000000014 0.9105629999999991
lclavicle -4.2738699999999954e-15 4.373259999999999e-15
lhumerus -41.45489999999999 -16.42269999999998 95.7118
lradius 108.27000000000001
lwrist 29.817
lhand -21.871799999999993 3.87646
lfingers nan
lthumb 4.532579999999994 33.808
rclavicle -4.2738699999999954e-15 4.373259999999999e-15
rhumerus -58.367599999999996 9.712659999999996 -93.94040000000001
rradius 98.30789999999998
rwrist -18.658
rhand -23.235599999999998 nan
rfingers nan
rthumb 3.21554 13.547299999999993
2
root 0.04211430000000049 17.4901 -31.59740000000001 5.286469999999998 -6.121779999999996 -1.4268899999999984
lfemur -3.9143099999999666 0.6689870000000011 -22.038099999999993
ltibia 85.30609999999994
lfoot 33.681300000000064 -18.224799999999988
ltoes -1.7375000000000025
rfemur -34.676199999999966 7.076240000000009 28.9024
rtibia 44.362600000000015
rfoot -10.423899999999962 -5.68335
rtoes 10.132299999999995
lowerback nan -0.9209589999999971 -0.6359700000000017
upperback -0.6598700000000001 -1.0529299999999948 2.8312700000000017
thorax -10.7027 -0.3682910000000018 3.7536199999999997
lowerneck -17.8606 -1.6126400000000038 -2.7908199999999996
upperneck 10.053199999999999 -1.7757799999999988 1.9928100000000017
head 5.991480000000001 -0.8091560000000024 0.9058670000000011
lclavicle -8.24955999999999e-15 3.3793399999999925e-14
lhumerus -42.01089999999999 -15.177400000000016 95.88109999999999
lradius 106.16
lwrist 30.0114
lhand -22.013100000000005 3.65487
lfingers nan
lthumb 4.396099999999995 33.5892
rclavicle -8.24955999999999e-15 3.3793399999999925e-14
rhumerus -56.772299999999994 10.775200000000002 -94.6391
rradius 97.89669999999998
rwrist -19.935600000000004
rhand -22.3582 nan
rfingers nan
rthumb 4.062909999999997 12.961299999999994
3
root 0.022598000000000673 17.4321 -31.12739999999999 5.225410000000002 -5.983229999999997 -2.3109100000000002
lfemur -6.235039999999984 1.403810000000003 -19.74
ltibia 89.05100000000007
lfoot 33.757700000000014 -17.79470000000002
ltoes -0.2151339999999795
rfemur -33.65199999999997 8.326870000000007 29.9136
rtibia 46.16759999999999
rfoot -12.382500000000027 -7.806149999999999
rtoes 9.090289999999992
lowerback nan -0.9364190000000016 0.23595800000000078
upperback -0.39904699999999926 -0.8845370000000037 2.903619999999998
thorax -10.518400000000002 -0.33948399999999923 3.286139999999997
lowerneck -18.0911 -1.9412499999999984 -3.0412800000000004
upperneck 10.496600000000003 -2.2288900000000025 2.4893500000000035
head 6.19121 -0.9958569999999982 1.0568200000000005
lclavicle 2.5742599999999998e-14 -3.2203100000000046e-14
lhumerus -42.05810000000001 -14.413100000000007 95.56890000000001
lradius 103.99500000000003
lwrist 29.948
lhand -22.8729 3.39756
lfingers nan
lthumb 3.5658900000000022 33.3475
rclavicle 2.5742599999999998e-14 -3.2203100000000046e-14
rhumerus -54.23469999999999 11.4583 -95.513
rradius 97.37600000000002
rwrist -21.030200000000004
rhand -21.631600000000002 nan
rfingers nan
rthumb 4.7644699999999975 12.381300000000003
4
root 0.009778570000000708 17.346 -30.674200000000024 5.280320000000001 -5.657659999999996 -3.4455900000000015
lfemur -8.929149999999991 2.0910399999999956 -17.1637
ltibia 92.77160000000009
lfoot 33.05410000000002 -18.209400000000016
ltoes 1.3465300000000084
rfemur -32.688400000000016 9.294079999999992 31.2561
rtibia 47.811600000000006
rfoot -14.49660000000002 -9.533100000000008
rtoes 7.574779999999995
lowerback nan -1.057049999999998 1.7826
upperback 0.12925899999999768 -0.7621249999999982 2.770970000000002
thorax -9.75775 -0.373719 2.19873
lowerneck -19.0758 -2.100480000000003 -2.8871800000000003
upperneck 10.907500000000004 -2.562560000000004 3.1390900000000004
head 6.50155 -1.0850100000000014 1.1999099999999998
lclavicle 2.286019999999996e-15 1.2324600000000013e-14
lhumerus -41.67909999999998 -13.936100000000003 94.79000000000002
lradius 101.92999999999999
lwrist 30.0565
lhand -23.090199999999996 3.6816999999999993
lfingers nan
lthumb 3.355989999999996 33.635
rclavicle 2.286019999999996e-15 1.2324600000000013e-14
rhumerus -51.1531 11.8867 -96.5383
rradius 97.0428
rwrist -21.7716
rhand -21.5414 nan
rfingers nan
rthumb 4.8515799999999984 12.194200000000006
5
root -2.6744500000175364e-05 17.2757 -30.2182 5.377179999999997 -4.897899999999998 -4.418559999999998
lfemur -11.922100000000011 2.3336999999999968 -14.805799999999994
ltibia 96.15659999999991
lfoot 32.33050000000002 -18.536099999999983
ltoes 2.540720000000004
rfemur -31.505999999999958 9.686149999999996 32.489999999999995
rtibia 48.929000000000016
rfoot -16.484 -11.303899999999992
rtoes 7.21645
lowerback nan -1.0709100000000005 2.3717299999999994
upperback 0.13633699999999893 -0.5765579999999986 3.380989999999997
thorax -10.028000000000002 -0.2958390000000022 2.497400000000003
lowerneck -20.3617 -2.313339999999997 -3.21404
upperneck 11.699200000000001 -2.7330700000000037 3.0747399999999967
head 6.9778 -1.1730299999999987 1.2041300000000001
lclavicle -2.822739999999995e-14 2.7432300000000046e-14
lhumerus -41.89180000000001 -12.865099999999995 95.31109999999998
lradius 99.96020000000003
lwrist 30.009499999999996
lhand -23.133799999999997 3.7603599999999995
lfingers nan
lthumb 3.313850000000003 33.7144
rclavicle -2.822739999999995e-14 2.7432300000000046e-14
rhumerus -48.8283 12.861400000000001 -96.4016
rradius 97.13900000000002
rwrist -22.5251
rhand -21.507600000000004 nan
rfingers nan
rthumb 4.884279999999995 11.720400000000001
6
root -0.010654100000000333 17.2211 -29.757899999999925 5.52112 -4.190470000000002 -4.870739999999994
lfemur -15.337999999999997 2.588990000000005 -13.2352
ltibia 99.16839999999999
lfoot 32.10740000000003 -18.327499999999986
ltoes 5.378680000000035
rfemur -30.253399999999985 9.874549999999992 33.2094
rtibia 49.81600000000002
rfoot -18.041800000000002 -12.867899999999988
rtoes 5.633520000000001
lowerback nan -1.1226199999999968 2.8422900000000015
upperback 0.2960670000000004 -0.5362940000000029 3.5097800000000023
thorax -9.89436 -0.2960659999999984 2.3571999999999993
lowerneck -21.2971 -2.4734000000000007 -2.9643299999999995
upperneck 11.836200000000003 -2.966079999999996 2.8999400000000026
head 7.175969999999999 -1.280479999999998 1.0720999999999998
lclavicle -2.534499999999996e-14 3.935940000000004e-14
lhumerus -41.981199999999994 -12.094999999999988 95.23900000000002
lradius 98.25129999999999
lwrist 29.3273
lhand -23.5357 4.284650000000001
lfingers nan
lthumb 2.9258000000000015 34.2443
rclavicle -2.534499999999996e-14 3.935940000000004e-14
rhumerus -45.923100000000005 13.643099999999997 -96.646
rradius 97.1473
rwrist -23.128
rhand -21.330699999999997 nan
rfingers nan
rthumb 5.055029999999996 11.0564
